<?xml version="1.0" encoding="utf-8"?>
<!-- Generator: Adobe Illustrator 15.1.0, SVG Export Plug-In . SVG Version: 6.00 Build 0)  -->
<!DOCTYPE svg PUBLIC "-//W3C//DTD SVG 1.1//EN" "http://www.w3.org/Graphics/SVG/1.1/DTD/svg11.dtd">
<svg version="1.1" id="Layer_1" xmlns="http://www.w3.org/2000/svg" xmlns:xlink="http://www.w3.org/1999/xlink" x="0px" y="0px"
	 width="500px" height="500px" viewBox="0 0 500 500" enable-background="new 0 0 500 500" xml:space="preserve">
<path fill-rule="evenodd" clip-rule="evenodd" d="M377.654,330.364c0.488-1.486,2.438,1.677,2.61-0.82
	c-4.632-9.173-15.164-25.023-28.136-24.129c2.722-0.965,6.218,0.523,8.673-1.292c-1.515-2.238-4.615-1.807-5.418-3.555
	c0.731,0.298,1.442,0.537,1.739-0.547c-8.022-8.369-9.909-21.016-18.269-27.709c0.968,0.545,1.694,0.324,2.311-0.248
	c-2.604-3.485-4.436-9.214-10.787-9.991c3.283,29.048,18.798,43.441,36.961,64.365c-11.729-13.584-27.144-23.438-33.653-38.643
	c-3.402-7.946-4.653-17.596-4.408-26.962c0.879-0.46,1.485-1.373,1.485-2.436c0-1.153-0.711-2.141-1.718-2.552
	c-0.066-4.272,0.126-9.57,0.468-15.272c1.169-0.282,2.038-1.326,2.038-2.581c0-0.458-0.127-0.884-0.331-1.261
	c0.995-1.956,1.737-5.21,1.904-8.93c0.209-4.612-0.524-8.6-1.741-10.305c0.604-6.286,1.211-12.045,1.672-16.397
	c0.086-0.824,0.165-1.577,0.239-2.277c2.349-0.277,4.172-2.271,4.172-4.695c0-1.449-0.653-2.744-1.679-3.611
	c14.215-18.906,22.65-42.394,22.65-67.814c0-62.345-50.721-113.067-113.066-113.067c-62.345,0-113.066,50.722-113.066,113.067
	c0,29.433,11.309,56.272,29.806,76.41c-0.021,0.135-0.041,0.276-0.06,0.422c-1.641,0.619-2.81,2.198-2.81,4.056
	c0,1.828,1.133,3.389,2.733,4.027c0.177,4.096,0.566,9.358,1.068,15.832c-0.814,2.473-1.217,6.86-0.965,11.83
	c0.208,4.106,0.824,7.77,1.628,10.259c-0.618,0.542-1.014,1.328-1.014,2.214c0,1.354,0.914,2.481,2.154,2.834
	c0.198,4.814,0.283,9.468,0.175,13.683c-0.855,0.469-1.441,1.365-1.441,2.41c0,0.957,0.487,1.8,1.226,2.295
	c-0.013,0.191-0.026,0.384-0.041,0.572l0.23,0.017c-0.535,16.933-2.562,34.773-16.419,51.071
	c9.088-16.53,15.047-33.493,14.502-51.356c-4.522,0.223-8.39,4.648-10.111,8.339c0.684,0.687,1.499,0.424,2.398-0.446
	c-8.713,8.012-7.202,17.439-9.485,26.343c0.728,0.368,1.544,0.105,2.4-0.449c-0.167,1.193-4.791,2.597-3.034,5.035
	c2.779-1.319,5.464-1.961,7.96-1.235c-13.625,3.604-15.735,17.423-23.02,25.639c0.96,1.508,2.386-0.356,3.386,0.858
	c-8.32,1.961-17.583,10.738-26.021,13.539c9.515-1.146,20.641,0.876,29.868-7.555c1.234-0.641-0.015,1.484-0.646,1.857
	c4.457-0.966,9.328-5.797,11.417-9.326c1.331,0.083-0.602,3.01-0.964,4.15c3.3-0.591,5.666-4.66,5.643-7.01
	c1.723-0.358-1.052,3.958,0.671,3.6c7.502-5.715,13.713-11.606,11.921-18.606c0.885-0.466,0.945,2.164,0.776,2.834
	c7.262-11.07,11.08-25.992,2.109-40.605c2.034,2.022,0.428-2.979-0.688-7.149c0.854-0.47,1.44-1.367,1.44-2.41
	c0-1.151-0.706-2.136-1.709-2.55c0.104-4.287,0.012-9.003-0.19-13.869c0.841-0.521,1.407-1.445,1.407-2.508
	c0-0.716-0.266-1.365-0.689-1.875c0.639-2.562,0.933-6.515,0.708-10.931c-0.343-6.741-1.778-12.292-3.358-13.409
	c-0.387-5.009-0.736-9.769-0.913-13.681c1.618-0.294,2.921-1.48,3.381-3.033c8.334,7.884,17.863,14.516,28.283,19.592
	c-3.454,0.126-6.217,2.958-6.217,6.442c0,3.389,2.615,6.163,5.934,6.429c0.292,3.544,0.813,7.81,1.475,12.78
	c-2.252,1.007-3.823,3.264-3.823,5.891c0,3.234,2.382,5.905,5.485,6.374c0.951,7.286,1.707,14.325,1.437,18.57
	c-0.076-0.018-0.149-0.028-0.223-0.048c-4.037,8.577-14.981,11.188-18.109,21.066c1.312-1.137,5.057-4.1,7.052-3.222
	c-3.831,1.232-4.312,3.711-6.814,5.437c-4.809,16.817-5.166,38.129-6.025,54.647c2.108-3.475,6.837-8.783,11.062-9.697
	c-5.464,4.696-11.803,9.067-10.351,16.344c1.991,0.115,0.849-3.45,2.271-1.811c-2.253,6.88-4.515,33.785,7.53,36.84
	c9.975,2.526,14.734-19.551,15.406-25.627c0.63,1.636,1.545,2.508,2.745,2.619c4.077-10.708,5.052-22.576,5.011-34.823
	c0.445,0.71,0.721,1.871,1.519,1.633c0.581-3.506-3.316-8.683-3.345-12.415c1.073,2.351,2.146,4.7,3.219,7.051
	c2.666-11.516,10.365-26.479,0.747-39.069c1.98-0.56,2.775,2.066,4.667,1.74c-1.792-6.974-6.116-17.207-11.638-18.696
	c0.105,25.03,0.915,39.625-12.221,78.389c5.091-25.624,10.25-53.063,10.828-80.143c-0.158,0.019-0.32,0.024-0.48,0.035
	c0.304-4.505-0.419-11.374-1.419-19.025c2.638-0.811,4.555-3.264,4.555-6.169c0-3.502-2.79-6.346-6.269-6.446
	c-0.596-4.455-1.147-8.883-1.453-12.635c2.418-0.932,4.136-3.273,4.136-6.019c0-1.529-0.535-2.932-1.424-4.039
	c6.49,2.758,13.29,4.919,20.33,6.432c-0.116,1.943-0.058,5.429,0.153,11.854c-2.265,2.967-3.65,10.602-3.276,19.482
	c0.295,6.96,1.601,13.062,3.358,16.71c-1.161,0.771-1.928,2.089-1.928,3.587c0,1.954,1.302,3.598,3.084,4.124
	c0.116,10.508,0.039,21.428-0.423,31.883c-2.077,0.521-3.617,2.393-3.617,4.63c0,2.05,1.291,3.792,3.102,4.474
	c-0.011,0.163-0.021,0.328-0.032,0.49c-1.775,0.531-3.069,2.174-3.069,4.12c0,1.702,0.991,3.17,2.424,3.867
	c-0.327,3.877-0.664,7.716-0.995,11.465c-1.788,20.275-3.431,38.959-2.855,56.013c-1.919,0.433-3.354,2.146-3.354,4.195
	c0,2.221,1.685,4.05,3.846,4.278c0.274,3.277,0.647,6.491,1.143,9.639c-1.542,0.793-2.599,2.397-2.599,4.251
	c0,2.51,1.937,4.565,4.398,4.761c0.23,0.936,0.47,1.866,0.724,2.788c-1.636,1.011-2.731,2.816-2.731,4.88
	c0,3.168,2.568,5.738,5.737,5.738c3.168,0,5.737-2.57,5.737-5.738c0-3.167-2.569-5.736-5.737-5.736
	c-0.088,0-0.174,0.009-0.263,0.014c-0.235-0.856-0.458-1.718-0.671-2.585c1.415-0.829,2.367-2.363,2.367-4.121
	c0-2.421-1.799-4.416-4.132-4.732c-0.502-3.208-0.878-6.49-1.149-9.844c1.166-0.77,1.936-2.09,1.936-3.592
	c0-1.679-0.964-3.13-2.366-3.839c-0.616-17.014,1.033-35.757,2.827-56.117c0.33-3.727,0.665-7.541,0.991-11.396
	c1.907-0.441,3.33-2.146,3.33-4.188c0-1.797-1.104-3.337-2.673-3.979c0.012-0.158,0.021-0.318,0.033-0.477
	c2.065-0.527,3.596-2.397,3.596-4.628c0-2.04-1.281-3.777-3.081-4.464c0.469-10.567,0.546-21.597,0.427-32.199
	c1.558-0.646,2.654-2.182,2.654-3.974c0-0.706-0.173-1.369-0.475-1.957c2.016-3.318,3.212-10.543,2.859-18.863
	c-0.441-10.497-3.188-19.047-6.314-20.153c-0.142-4.481-0.219-8.119-0.15-10.089c4.85,0.911,9.804,1.517,14.847,1.784
	c-1.77,1.697-2.878,4.081-2.878,6.727c0,4.362,2.996,8.011,7.038,9.03c-2.436,0.924-4.169,3.271-4.169,6.03
	c0,3.062,2.135,5.621,4.995,6.282c0.005,0.368,0.011,0.735,0.018,1.102c-2.07,0.621-3.579,2.537-3.579,4.809
	c0,2.414,1.703,4.429,3.975,4.909c0.315,4.725,0.813,9.009,1.528,12.215c-0.115-0.007-0.235-0.007-0.349-0.018
	c-0.819,3.988-1.908,7.696-3.218,10.774c0.434-0.291,1.064-0.392,1.358-0.015c-2.521,0.848-1.53,2.782-4.051,3.63
	c-5.553,18.948-6.579,39.294-4.555,60.584c1.173-0.452,0.94-1.337,2.024-1.815c-0.556,2.432-2.392,4.467-1.31,7.405
	c1.574-0.926,1.413-2.171,1.474-0.032c-1.683,10.382,2.017,25.025,6.1,35.562c1.152-9.644,8.893-19.604,7.333-28.486
	c0.441,0.677,0.904,1.288,1.782,0.551c0.668-12.139,11.763-24.097,1.547-36.619c1.84,2.477,3.842,4.423,6.029,5.769
	c0.6-2.093-0.508-4.713-0.747-7.066c0.455,0.64,0.773,1.709,1.508,1.442c0.221-11.415,6.268-25.92-2.293-36.828
	c1.163-0.604,1.583,1.2,2.95-0.065c-2.456-6.169-5.588-12.907-11.2-12.733c3.864,27.284,2.44,44.835-4.098,81.224
	c3.145-26.655,4.638-55.527,2.785-83.5c-0.058,0.015-0.118,0.024-0.176,0.036c-0.781-3.251-1.301-7.538-1.617-12.227
	c1.903-0.714,3.261-2.545,3.261-4.696c0-2.293-1.539-4.223-3.639-4.823c-0.005-0.354-0.01-0.709-0.015-1.062
	c2.907-0.628,5.087-3.211,5.087-6.308c0-2.759-1.733-5.106-4.171-6.03c4.043-1.019,7.04-4.668,7.04-9.03
	c0-2.669-1.13-5.07-2.928-6.77c6.856-0.407,13.55-1.427,20.026-3.008c-0.728,3.649-1.568,11.542-2.185,21.709
	c-2.398,2.951-4.296,10.271-4.632,18.905c-0.271,6.996,0.547,13.212,2.018,16.983c-1.044,0.936-1.706,2.288-1.706,3.799
	c0,2.354,1.597,4.331,3.764,4.919c0.156,3.748,0.372,8.171,0.614,13.18c0.559,11.516,1.243,25.636,1.688,40.743
	c-1.792,0.837-3.035,2.651-3.035,4.76c0,2.204,1.358,4.09,3.282,4.871c0.077,3.701,0.139,7.436,0.175,11.188
	c-0.936,0.696-1.545,1.808-1.545,3.064c0,1.275,0.626,2.402,1.586,3.098c0.071,25.531-1.049,51.199-4.93,70.083
	c-1.887,0.235-3.349,1.843-3.349,3.794c0,1.325,0.675,2.492,1.699,3.178c-0.425,1.562-0.873,3.062-1.349,4.49
	c-0.117-0.009-0.232-0.02-0.351-0.02c-3.17,0-5.737,2.569-5.737,5.737c0,3.169,2.567,5.737,5.737,5.737
	c3.168,0,5.737-2.568,5.737-5.737c0-2.036-1.066-3.822-2.666-4.839c0.505-1.524,0.981-3.118,1.429-4.787
	c1.79-0.32,3.148-1.88,3.148-3.76c0-1.257-0.608-2.369-1.543-3.066c3.916-19.021,5.078-44.646,5.034-70.138
	c1.815-0.297,3.202-1.869,3.202-3.771c0-1.915-1.409-3.498-3.248-3.776c-0.036-3.409-0.091-6.803-0.16-10.168
	c2.478-0.427,4.365-2.58,4.365-5.18c0-2.69-2.022-4.906-4.63-5.218c-0.443-14.989-1.122-28.985-1.678-40.425
	c-0.24-4.973-0.454-9.368-0.61-13.091c2.07-0.65,3.571-2.582,3.571-4.868c0-1.368-0.543-2.609-1.421-3.524
	c1.76-3.646,3.057-9.781,3.328-16.776c0.415-10.699-1.718-19.582-4.84-20.668c0.736-11.463,1.731-19.459,2.362-21.143l-0.146-0.055
	c6.951-1.899,13.636-4.452,19.988-7.577c-0.114,0.479-0.179,0.976-0.179,1.489c0,3.137,2.237,5.749,5.204,6.331
	c0.065,4.994,0.094,9.619,0.088,13.867c-2.612,0.538-4.576,2.848-4.576,5.62c0,2.728,1.905,5.006,4.456,5.589
	c-0.272,12.613-1.005,20.406-2.193,23.262l0.437,0.183c-1.214,1.238-3.687,2.404-4.662,3.487
	c-6.612,7.336-8.443,17.392-10.801,25.385c2.178-1.503,2.077-5.604,4.564-5.447c-12.275,20.032,4.036,43.065,19.79,61.759
	c-1.339-5.189-0.352-13.005,1.692-16.488c-1.135,6.325-3.602,15.295,2.768,20.041c-0.415-0.839-0.358-1.674,0.528-2.495
	c2.18,6.99,9.366,21.352,17.737,23.219c14.772,3.29,14.792-23.407,7.363-30.93c1.006-0.374,1.98,1.873,2.991,1.036
	c-3.4-9.333-10.207-20.391-20.68-28.253c1.183-1.451,2.315,1.572,3.506-0.461c-1.995-2.029-6.598-3.84-6.932-6.082
	c1.482,1.564,2.977,2.127,4.483,1.552c-6.231-10.592-1.663-23.68-11.124-32.646c1.345-0.997,2.663,0.461,4.003,0.047
	c-0.751-4.593-4.812-12.549-10.842-14.132c-3.153,28.09,5.666,55.455,24.028,84.318c-23.553-28.168-30.521-56.142-25.859-83.98
	c1.116-3.692,1.803-11.45,2.066-23.452c2.397-0.688,4.153-2.893,4.153-5.511c0-2.575-1.696-4.754-4.031-5.479
	c0.009-4.309-0.021-9.011-0.089-14.096c2.78-0.72,4.837-3.238,4.837-6.242c0-2.812-1.803-5.199-4.312-6.083
	c9.812-5.914,18.66-13.273,26.243-21.785c0.35,0.278,0.738,0.509,1.157,0.679c-0.077,0.743-0.16,1.528-0.247,2.344
	c-0.454,4.303-1.053,9.973-1.649,16.173c-1.528,1.283-2.792,5.455-3.018,10.458c-0.156,3.482,0.223,6.607,0.942,8.665
	c-0.462,0.48-0.748,1.127-0.748,1.845c0,0.815,0.374,1.536,0.951,2.024c-0.363,5.958-0.57,11.512-0.498,15.973
	c-0.854,0.47-1.439,1.365-1.439,2.408c0,0.979,0.513,1.834,1.28,2.323c-1.103,5.344-2.089,10.651-3.027,15.941
	c0.746-0.668,0.874-3.303,2.062-2.559c-8.342,24.791,6.852,44.642,32.763,57.082c2.125,0.358-1.782-3.812,0.347-3.454
	c-0.015,2.235,2.283,3.743,2.783,5.815c11.521,6.364,19.096,20.359,25.179,28.404C384.773,351.067,388.096,338.553,377.654,330.364z
	 M333.824,184.148c-5.102-9.168-10.834-17.374-17.166-24.58c3.996,0.375,8.071,0.567,12.225,0.567c0.311,0,0.622-0.007,0.934-0.008
	c0.362,2.253,2.312,3.978,4.668,3.978c2.482,0,4.515-1.914,4.712-4.347c2.512-0.18,5.052-0.428,7.615-0.74
	C343.584,168.006,339.194,176.44,333.824,184.148z M347.47,157.147c-2.893,0.367-5.711,0.648-8.46,0.848
	c-0.59-1.94-2.394-3.354-4.525-3.354c-2.271,0-4.167,1.6-4.626,3.733c-5.256,0.044-10.225-0.216-14.92-0.726
	c-7.021-7.66-14.751-14.13-23.15-19.367c2.581,0.189,5.174,0.29,7.778,0.29c7.4,0,14.895-0.779,22.459-2.307
	c8.385,4.816,17.08,11.158,25.907,19.459C347.779,156.198,347.629,156.675,347.47,157.147z M277.855,182.23
	c0.505,2.508,0.933,5.111,1.283,7.803c-8.61-8.171-14.856-16.565-19.442-24.579c-0.062-0.556-0.125-1.107-0.194-1.653
	c3.54-1.213,6.914-2.878,10.04-4.981c0.406,0.384,0.821,0.767,1.24,1.149c1.743,3.905,3.342,8.146,4.708,12.74
	c-1.506,0.895-2.519,2.531-2.519,4.409C272.972,179.865,275.138,182.103,277.855,182.23z M245.37,162.056
	c-21.691,0-39.344-17.647-39.353-39.338c-0.004-10.511,4.085-20.396,11.516-27.831c7.43-7.436,17.311-11.533,27.839-11.538
	c21.691,0,39.345,17.648,39.352,39.339c0.005,10.511-4.086,20.396-11.516,27.831c-7.43,7.435-17.311,11.533-27.822,11.537
	 M256.68,197.171c-5.665-10.43-9.011-20.344-10.896-29.382c0.116-0.556,0.227-1.108,0.331-1.656
	c3.798-0.064,7.513-0.612,11.083-1.616c0.269,0.491,0.544,0.983,0.825,1.478C258.993,175.146,258.85,185.561,256.68,197.171z
	 M244.025,167.786c-1.903,9-5.26,18.864-10.911,29.237c-2.165-11.67-2.285-22.132-1.284-31.311c0.281-0.49,0.556-0.979,0.823-1.464
	c3.514,1.078,7.217,1.715,11.044,1.86C243.799,166.663,243.912,167.223,244.025,167.786z M215.288,185.059
	c-1.436,1.52-2.948,3.033-4.541,4.539c1.549-11.771,4.67-21.758,8.459-30.178c0.422-0.385,0.842-0.769,1.252-1.154
	c3.042,2.137,6.363,3.902,9.906,5.21c-0.074,0.556-0.14,1.12-0.204,1.687c-2.475,4.294-5.43,8.698-8.968,13.116
	c-0.567-0.241-1.192-0.375-1.847-0.375c-2.612,0-4.731,2.118-4.731,4.731C214.615,183.523,214.863,184.35,215.288,185.059z
	 M219.236,87.994c-1.609,1.217-3.148,2.547-4.599,3.998c-1.218,1.221-2.345,2.506-3.397,3.837c-0.505-0.238-1.021-0.474-1.538-0.708
	c-6.169-6.834-12.184-15.345-17.257-26.023c10.722,5.111,19.255,11.17,26.096,17.378C218.771,86.988,219.001,87.495,219.236,87.994z
	 M211.6,55.368c8.618,8.174,14.861,16.575,19.448,24.593c0.062,0.553,0.125,1.101,0.194,1.642c-3.54,1.214-6.915,2.879-10.042,4.982
	c-0.402-0.378-0.815-0.756-1.23-1.135C216.215,77.044,213.126,67.092,211.6,55.368z M209.791,97.771
	c-2.17,3.084-3.919,6.415-5.209,9.922c-0.544-0.072-1.099-0.134-1.655-0.198c-7.527-4.333-15.382-10.125-23.069-17.976
	c0.247-0.357,0.446-0.75,0.59-1.168c10.923,1.626,20.263,4.613,28.211,8.189C209.035,96.958,209.413,97.367,209.791,97.771z
	 M203.809,109.976c-1.082,3.55-1.703,7.259-1.844,11.052c-0.548,0.101-1.106,0.215-1.661,0.328
	c-9.007-1.902-18.875-5.254-29.256-10.91c11.679-2.167,22.141-2.281,31.323-1.28C202.852,109.441,203.332,109.713,203.809,109.976z
	 M201.943,123.444c0.064,3.832,0.627,7.542,1.626,11.074c-0.492,0.267-0.986,0.55-1.482,0.831
	c-9.151,0.973-19.572,0.833-31.188-1.337c10.437-5.669,20.354-9.01,29.396-10.896C200.847,123.231,201.398,123.341,201.943,123.444z
	 M202.627,137.026c0.56-0.061,1.118-0.126,1.667-0.196c1.231,3.572,2.908,6.938,4.978,10.021c-0.386,0.41-0.773,0.833-1.161,1.257
	c-7.951,3.552-17.289,6.507-28.197,8.109c-0.159-0.381-0.366-0.736-0.608-1.065C187.079,147.211,195.025,141.376,202.627,137.026z
	 M209.143,149.536c0.518-0.234,1.034-0.468,1.54-0.706c2.255,2.986,4.891,5.664,7.827,7.982c-0.245,0.515-0.485,1.04-0.725,1.569
	c-6.831,6.165-15.343,12.173-26.014,17.244C196.881,164.907,202.938,156.374,209.143,149.536z M233.666,50.468
	c0.482-0.075,0.947-0.2,1.382-0.384c5.077,9.758,8.137,19.038,9.91,27.544c-0.114,0.552-0.226,1.101-0.328,1.644
	c-3.798,0.063-7.513,0.612-11.082,1.615c-0.266-0.487-0.544-0.976-0.823-1.466C231.813,70.86,231.876,61.19,233.666,50.468z
	 M246.718,77.638c1.902-9.006,5.255-18.876,10.911-29.255c2.166,11.676,2.281,22.139,1.278,31.321
	c-0.278,0.487-0.554,0.973-0.82,1.457c-3.512-1.078-7.215-1.715-11.041-1.862C246.946,78.751,246.831,78.193,246.718,77.638z
	 M299.839,100.562c-3.949,3.037-7.877,5.62-11.716,7.817c-0.563,0.062-1.123,0.127-1.675,0.198
	c-1.231-3.571-2.909-6.938-4.98-10.022c0.389-0.41,0.776-0.833,1.163-1.257c8.402-3.752,18.355-6.837,30.07-8.362
	c-2.121,2.234-4.254,4.308-6.393,6.235c-0.722-0.536-1.613-0.856-2.581-0.856c-2.396,0-4.337,1.941-4.337,4.336
	C299.391,99.337,299.555,99.983,299.839,100.562z M288.8,121.96c-0.063-3.833-0.629-7.543-1.628-11.075
	c0.496-0.271,0.994-0.55,1.493-0.833c9.148-0.971,19.565-0.826,31.174,1.342c-10.432,5.666-20.344,9.013-29.382,10.898
	C289.9,122.174,289.349,122.064,288.8,121.96z M319.69,134.96c-11.672,2.165-22.134,2.283-31.311,1.283
	c-0.484-0.276-0.967-0.548-1.446-0.812c1.082-3.551,1.703-7.26,1.845-11.055c0.554-0.102,1.112-0.213,1.674-0.328
	C299.454,125.952,309.317,129.308,319.69,134.96z M281.6,95.87c-0.519,0.234-1.035,0.468-1.54,0.707
	c-2.255-2.985-4.891-5.664-7.826-7.981c0.243-0.514,0.482-1.039,0.722-1.566c6.831-6.167,15.344-12.176,26.016-17.248
	C293.86,80.498,287.805,89.033,281.6,95.87z M271.533,85.989c-0.423,0.384-0.842,0.768-1.251,1.153
	c-3.041-2.137-6.362-3.901-9.903-5.209c0.073-0.551,0.135-1.112,0.2-1.673c4.592-7.979,10.83-16.328,19.416-24.453
	C278.445,67.581,275.322,77.568,271.533,85.989z M271.507,157.412c1.609-1.217,3.147-2.546,4.599-3.998
	c1.219-1.22,2.345-2.507,3.398-3.839c0.51,0.242,1.028,0.481,1.551,0.717c6.162,6.831,12.168,15.342,17.237,26.01
	c-10.714-5.109-19.248-11.162-26.085-17.365C271.976,158.422,271.743,157.915,271.507,157.412z M280.952,147.636
	c2.17-3.084,3.919-6.414,5.209-9.924c0.55,0.072,1.108,0.139,1.67,0.203c7.973,4.592,16.315,10.832,24.435,19.411
	c-11.769-1.548-21.756-4.667-30.175-8.455C281.711,148.453,281.331,148.041,280.952,147.636z M348.521,153.843
	c-7.697-7.161-15.698-13.205-23.964-18.111c9.415-2.108,18.934-5.391,28.508-9.838C352.781,135.582,351.21,144.953,348.521,153.843z
	 M353.115,122.704c0,0.406-0.012,0.809-0.016,1.215c-11.004,5.188-21.273,8.536-30.769,10.521
	c-9.043-5.114-18.394-8.877-27.999-11.264c9.658-2.371,19.06-6.13,28.149-11.258c9.458,1.988,19.681,5.332,30.629,10.495
	C353.112,122.509,353.115,122.606,353.115,122.704z M353.087,120.44c-9.53-4.43-19.004-7.703-28.374-9.815
	c8.304-4.916,16.341-10.981,24.073-18.171C351.396,101.363,352.886,110.746,353.087,120.44z M348.217,90.555
	c-8.867,8.342-17.604,14.704-26.026,19.528c-10.181-2.07-20.235-2.759-30.109-2.06c3.023-1.875,5.96-3.906,8.81-6.097
	c0.761,0.66,1.751,1.062,2.837,1.062c2.396,0,4.337-1.942,4.337-4.338c0-0.802-0.222-1.551-0.602-2.194
	c2.729-2.458,5.368-5.071,7.913-7.841c9.608-1.03,20.367-1.009,32.378,0.518C347.909,89.606,348.066,90.079,348.217,90.555z
	 M347.12,87.266c-10.433-1.269-20.456-1.456-30.022-0.566c6.367-7.23,12.129-15.468,17.256-24.678
	C339.655,69.771,343.97,78.247,347.12,87.266z M333.224,60.394c-5.849,10.651-12.184,19.388-18.692,26.568
	c-10.328,1.178-20.112,3.633-29.291,7.353c6.426-7.6,11.832-16.166,16.175-25.664c8.807-3.944,19.028-7.244,30.9-9.503
	C332.62,59.563,332.926,59.974,333.224,60.394z M331.143,57.577c-10.309,2.021-19.891,4.943-28.71,8.746
	c3.831-8.85,6.771-18.471,8.803-28.825C318.714,43.292,325.412,50.047,331.143,57.577z M309.669,36.301
	c-2.271,11.936-5.596,22.203-9.567,31.043c-9.455,4.309-17.996,9.667-25.575,16.039c3.763-9.213,6.248-19.032,7.444-29.406
	c7.157-6.472,15.859-12.769,26.451-18.586C308.839,35.693,309.257,35.993,309.669,36.301z M306.814,34.25
	c-9.167,5.102-17.372,10.834-24.578,17.166c0.37-3.951,0.56-7.979,0.564-12.083c1.614-0.493,2.79-1.994,2.79-3.771
	c0-1.846-1.271-3.392-2.986-3.82c-0.18-3.444-0.489-6.938-0.919-10.477C290.673,24.492,299.109,28.881,306.814,34.25z
	 M279.814,20.606c0.487,3.824,0.82,7.524,1.015,11.098c-1.784,0.376-3.125,1.961-3.125,3.857c0,1.973,1.449,3.601,3.338,3.893
	c-0.004,4.798-0.256,9.358-0.725,13.681c-7.659,7.021-14.13,14.751-19.368,23.151c0.73-9.92,0.059-20.025-2.009-30.257
	c4.814-8.378,11.155-17.068,19.451-25.887C278.866,20.296,279.343,20.446,279.814,20.606z M276.51,19.555
	c-7.159,7.697-13.202,15.696-18.107,23.958c-2.108-9.413-5.392-18.929-9.839-28.501C258.251,15.295,267.621,16.866,276.51,19.555z
	 M245.371,14.96c0.407,0,0.81,0.011,1.215,0.016c5.187,11.002,8.539,21.271,10.523,30.765c-5.116,9.043-8.88,18.396-11.267,28.004
	c-2.059-8.394-5.168-16.592-9.313-24.562c1.307-1.084,2.139-2.72,2.139-4.551c0-2.073-1.07-3.894-2.684-4.951
	c2.039-7.766,4.991-16.01,9.096-24.716C245.178,14.964,245.274,14.96,245.371,14.96z M243.108,14.989
	c-3.735,8.035-6.647,16.029-8.735,23.958c-0.516-0.147-1.058-0.23-1.619-0.23c-0.74,0-1.444,0.142-2.096,0.39
	c-4.398-6.801-9.58-13.414-15.535-19.818C224.032,16.679,233.414,15.189,243.108,14.989z M211.803,20.321
	c0.473-0.155,0.945-0.313,1.421-0.461c6.4,6.804,11.641,13.532,15.908,20.102c-1.394,1.082-2.293,2.768-2.293,4.67
	c0,2.978,2.204,5.436,5.068,5.848c-1.406,8.613-1.811,17.129-1.216,25.514c-5.241-8.454-11.723-16.233-19.409-23.295
	C210.251,43.089,210.275,32.332,211.803,20.321z M209.935,20.954c-1.269,10.434-1.456,20.457-0.567,30.024
	c-7.23-6.369-15.467-12.132-24.677-17.257C192.44,28.419,200.916,24.104,209.935,20.954z M183.062,34.851
	c10.649,5.848,19.39,12.18,26.568,18.687c1.178,10.332,3.631,20.115,7.352,29.297c-7.599-6.427-16.166-11.832-25.663-16.174
	c-3.944-8.808-7.242-19.029-9.501-30.902C182.232,35.456,182.643,35.148,183.062,34.851z M180.245,36.932
	c2.021,10.309,4.944,19.891,8.746,28.71c-8.851-3.83-18.471-6.771-28.825-8.802C165.96,49.361,172.714,42.663,180.245,36.932z
	 M158.969,58.407c11.935,2.271,22.203,5.592,31.042,9.564c4.31,9.456,9.668,17.999,16.04,25.577
	c-8.004-3.27-16.467-5.574-25.354-6.905c-0.096-2.529-2.171-4.553-4.723-4.553c-0.837,0-1.622,0.22-2.303,0.6
	c-5.425-6.462-10.69-14.074-15.612-23.038C158.361,59.235,158.661,58.818,158.969,58.407z M156.918,61.258
	c4.626,8.316,9.772,15.837,15.415,22.542c-0.434,0.521-0.753,1.141-0.931,1.816c-8.792-0.638-17.96-0.383-27.471,0.772
	C147.159,77.402,151.549,68.965,156.918,61.258z M143.273,88.26c10.219-1.298,19.533-1.511,28-0.909
	c0.264,2.364,2.267,4.201,4.701,4.201c0.984,0,1.898-0.301,2.655-0.815c6.253,6.372,13.036,11.844,20.322,16.388
	c-9.919-0.73-20.022-0.059-30.254,2.009c-8.378-4.814-17.068-11.157-25.887-19.451C142.963,89.208,143.114,88.731,143.273,88.26z
	 M142.222,91.563c7.697,7.159,15.696,13.203,23.959,18.107c-9.413,2.11-18.929,5.393-28.502,9.839
	C137.962,109.822,139.533,100.453,142.222,91.563z M137.628,122.704c0-0.407,0.011-0.811,0.016-1.216
	c11.001-5.186,21.271-8.539,30.763-10.523c9.045,5.116,18.396,8.88,28.004,11.267c-9.66,2.371-19.062,6.132-28.154,11.26
	c-9.454-1.988-19.677-5.334-30.625-10.497C137.631,122.896,137.628,122.8,137.628,122.704z M137.657,124.965
	c9.531,4.429,19.005,7.702,28.378,9.813c-8.305,4.915-16.344,10.981-24.078,18.172C139.346,144.043,137.857,134.659,137.657,124.965
	z M142.526,154.851c8.871-8.344,17.611-14.712,26.035-19.537c7.614,1.547,15.161,2.337,22.612,2.337
	c2.509,0,5.006-0.095,7.493-0.271c-7.393,4.581-14.269,10.114-20.601,16.571c-0.821-0.56-1.813-0.888-2.88-0.888
	c-2.504,0-4.587,1.799-5.035,4.173c-8.244,0.53-17.278,0.293-27.161-0.964C142.833,155.799,142.676,155.327,142.526,154.851z
	 M143.623,158.141c6.127,0.745,12.114,1.12,17.949,1.12c2.89,0,5.739-0.098,8.555-0.28c0.146,0.946,0.547,1.806,1.137,2.507
	c-5.431,6.54-10.395,13.848-14.875,21.896C151.086,175.635,146.772,167.158,143.623,158.141z M157.518,185.013
	c4.763-8.673,9.845-16.075,15.083-22.4c0.758,0.445,1.641,0.704,2.583,0.704c2.83,0,5.125-2.295,5.125-5.125
	c0-0.095-0.01-0.188-0.014-0.282c8.833-1.314,17.246-3.593,25.208-6.82c-6.428,7.6-11.834,16.167-16.177,25.667
	c-8.807,3.944-19.028,7.244-30.901,9.503C158.123,185.843,157.816,185.432,157.518,185.013z M159.6,187.829
	c10.309-2.021,19.891-4.943,28.709-8.745c-3.83,8.85-6.77,18.471-8.801,28.824C172.028,202.114,165.331,195.357,159.6,187.829z
	 M181.073,209.106c2.271-11.936,5.593-22.203,9.565-31.042c9.457-4.31,17.998-9.668,25.576-16.04
	c-3.762,9.211-6.247,19.031-7.443,29.404c-7.157,6.473-15.858,12.769-26.451,18.586
	C181.903,209.714,181.486,209.413,181.073,209.106z M183.928,211.157c9.167-5.103,17.372-10.833,24.579-17.166
	c-0.903,9.606-0.721,19.671,0.55,30.151C200.069,220.916,191.634,216.526,183.928,211.157z M210.928,224.8
	c-1.535-12.074-1.55-22.881-0.503-32.529c2.093-1.917,4.096-3.888,6.01-5.91c0.803,0.629,1.813,1.009,2.912,1.009
	c2.614,0,4.732-2.121,4.732-4.733c0-1.335-0.557-2.54-1.446-3.401c2.598-3.253,4.984-6.626,7.159-10.113
	c-0.729,9.919-0.059,20.021,2.009,30.251c-4.815,8.38-11.154,17.072-19.449,25.891C211.876,225.11,211.4,224.96,210.928,224.8z
	 M214.232,225.852c7.159-7.697,13.202-15.696,18.106-23.958c2.109,9.413,5.392,18.929,9.839,28.501
	C232.49,230.112,223.122,228.541,214.232,225.852z M245.663,230.443c-0.097,0-0.194,0.002-0.292,0.002
	c-0.406,0-0.811-0.01-1.215-0.014c-5.188-11.003-8.539-21.272-10.522-30.767c5.116-9.043,8.879-18.393,11.265-28.001
	c2.371,9.66,6.13,19.061,11.257,28.151C254.168,209.27,250.825,219.493,245.663,230.443z M247.636,230.417
	c4.429-9.529,7.702-19.001,9.813-28.373c4.914,8.304,10.98,16.342,18.171,24.074C266.712,228.728,257.329,230.216,247.636,230.417z
	 M278.941,225.085c-0.475,0.156-0.947,0.314-1.424,0.463c-8.34-8.868-14.703-17.604-19.526-26.025
	c2.069-10.18,2.759-20.236,2.06-30.109c5.24,8.454,11.722,16.233,19.407,23.294C280.489,202.317,280.468,213.073,278.941,225.085z
	 M280.811,224.452c1.267-10.434,1.453-20.456,0.564-30.023c7.23,6.369,15.467,12.13,24.677,17.257
	C298.303,216.987,289.827,221.301,280.811,224.452z M307.681,210.556c-10.651-5.849-19.39-12.182-26.568-18.691
	c-0.381-3.337-0.896-6.618-1.543-9.837c2.114-0.633,3.655-2.592,3.655-4.91c0-2.832-2.296-5.127-5.127-5.127
	c-0.342,0-0.677,0.036-1,0.1c-0.967-3.239-2.08-6.413-3.337-9.516c7.598,6.426,16.164,11.83,25.659,16.172
	c3.946,8.809,7.246,19.028,9.506,30.902C308.512,209.951,308.1,210.258,307.681,210.556z M310.498,208.474
	c-2.021-10.307-4.944-19.889-8.746-28.708c8.851,3.83,18.471,6.771,28.825,8.802C324.782,196.047,318.028,202.744,310.498,208.474z
	 M300.729,177.433c-4.31-9.455-9.666-17.994-16.036-25.572c9.208,3.761,19.027,6.238,29.395,7.436
	c6.476,7.158,12.776,15.86,18.595,26.458c-0.301,0.417-0.602,0.835-0.909,1.246C319.836,184.73,309.57,181.404,300.729,177.433z"/>
</svg>
